HIERARCHY
ROOT Root
{
	OFFSET 0.00000 0.00000 0.00000
	CHANNELS 6 Xposition Yposition Zposition Zrotation Xrotation Yrotation
	JOINT Hip
	{
		OFFSET 0 0 0	
		CHANNELS 3 Zrotation Xrotation Yrotation
		JOINT Tummy
		{
			OFFSET 0 0.04 0	
			CHANNELS 3 Zrotation Xrotation Yrotation
			JOINT ChestBottom
			{
				OFFSET 0 0.194 0	
				CHANNELS 3 Zrotation Xrotation Yrotation
				JOINT ChestTop
				{
					OFFSET 0 0.166 0	
					CHANNELS 3 Zrotation Xrotation Yrotation
					JOINT LeftCollar
					{
						OFFSET 0 0.1 0	
						CHANNELS 3 Zrotation Xrotation Yrotation
						JOINT LeftUpperArm
						{
							OFFSET 0.156 -0.02 0.03	
							CHANNELS 3 Zrotation Xrotation Yrotation
							JOINT LeftForeArm
							{
								OFFSET 0.035 -0.27 -0.01	
								CHANNELS 3 Zrotation Xrotation Yrotation
								JOINT LeftHand
								{
									OFFSET 0.01 -0.27 0.01	
									CHANNELS 3 Zrotation Xrotation Yrotation
									End Site
									{
										OFFSET 0 -0.15 0
									}
								}
							}
						}
					}
					JOINT RightCollar
					{
						OFFSET 0 0.1 0	
						CHANNELS 3 Zrotation Xrotation Yrotation
						JOINT RightUpperArm
						{
							OFFSET -0.156 -0.02 0.03	
							CHANNELS 3 Zrotation Xrotation Yrotation
							JOINT RightForeArm
							{
								OFFSET -0.035 -0.27 -0.01	
								CHANNELS 3 Zrotation Xrotation Yrotation
								JOINT RightHand
								{
									OFFSET -0.01 -0.27 0.01	
									CHANNELS 3 Zrotation Xrotation Yrotation
									End Site
									{
										OFFSET 0 -0.15 0
									}
								}
							}
						}
					}
					JOINT Neck
					{
						OFFSET 0 0.1 0	
						CHANNELS 3 Zrotation Xrotation Yrotation
						JOINT Head
						{
							OFFSET 0 0.127 0.03	
							CHANNELS 3 Zrotation Xrotation Yrotation
							End Site
							{
								OFFSET 0 0.127 0.03
							}
						}
					}
				}
			}
		}
	}
	JOINT LeftHip
	{
		OFFSET 0 0 0	
		CHANNELS 3 Zrotation Xrotation Yrotation
		JOINT LeftThigh
		{
			OFFSET 0.088 -0.06 0	
			CHANNELS 3 Zrotation Xrotation Yrotation
			JOINT LeftLowerLeg
			{
				OFFSET 0 -0.39 0.02	
				CHANNELS 3 Zrotation Xrotation Yrotation
				JOINT LeftFootTop
				{
					OFFSET 0 -0.43 -0.02	
					CHANNELS 3 Zrotation Xrotation Yrotation
					JOINT LeftFootFront
					{
						OFFSET 0 -0.07 0.085	
						CHANNELS 3 Zrotation Xrotation Yrotation
						End Site
						{
							OFFSET 0 -0.005 0.09
						}
					}
				}
				JOINT LeftHeel
				{
					OFFSET 0 -0.43 -0.02	
					CHANNELS 3 Zrotation Xrotation Yrotation
					End Site
					{
						OFFSET 0 -0.075 -0.05
					}
				}
			}
		}
	}
	JOINT RightHip
	{
		OFFSET 0 0 0	
		CHANNELS 3 Zrotation Xrotation Yrotation
		JOINT RightThigh
		{
			OFFSET -0.088 -0.06 0	
			CHANNELS 3 Zrotation Xrotation Yrotation
			JOINT RightLowerLeg
			{
				OFFSET 0 -0.39 0.02	
				CHANNELS 3 Zrotation Xrotation Yrotation
				JOINT RightFootTop
				{
					OFFSET 0 -0.43 -0.02	
					CHANNELS 3 Zrotation Xrotation Yrotation
					JOINT RightFootFront
					{
						OFFSET 0 -0.07 0.085	
						CHANNELS 3 Zrotation Xrotation Yrotation
						End Site
						{
							OFFSET 0 -0.005 0.09
						}
					}
				}
				JOINT RightHeel
				{
					OFFSET 0 -0.43 -0.02	
					CHANNELS 3 Zrotation Xrotation Yrotation
					End Site
					{
						OFFSET 0 -0.075 -0.05
					}
				}
			}
		}
	}
}
MOTION
Frames: 20
Frame Time: 0.025
0 0.96047 0 -0 0 -0 3.2906 0.55789 -5.6894 -0.99999 -1.1245 -0.99227 -0.99999 -1.1245 -0.99227 -0.83867 -0.94577 -0.83217 -0 0 -0 -0.12354 2.1776 5.3472 -0.1608 -0.74538 -0.36611 2.9795 0.84867 -2.9656 -0 0 -0 1.0991 -0.83293 11.009 -1.6613 4.2889 2.8381 -1.269 -1.9595 -1.6868 -0.28473 2.4806 4.7427 -0.28473 2.4806 4.7427 3.2906 0.55789 -5.6894 -3.6093 -0.68412 6.1538 1.0679 -1.087 -2.8479 -0.60552 0.76041 2.0808 0 0 -1.2213e-08 -0 0 -0 3.2906 0.55789 -5.6894 -2.8644 -1.1427 3.6147 -1.0289 -0.42912 3.6746 0.82913 0.51738 -1.8302 -0 0 4.3251e-09 -0 0 -0 
0 0.96048 0 -0 0 -0 3.305 0.49419 -5.5288 -1.0178 -1.1011 -1.0489 -1.0178 -1.1011 -1.0489 -0.85362 -0.92621 -0.87977 -0 0 -0 -0.11965 2.1768 5.4178 -0.16172 -0.63918 -0.28592 2.9996 0.50427 -2.9332 -0 0 -0 1.1422 -0.76714 11.148 -1.7603 4.2466 2.8431 -1.3705 -1.8635 -1.736 -0.27159 2.5089 4.7753 -0.27159 2.5089 4.7753 3.305 0.49419 -5.5288 -3.6252 -0.59902 6.0509 1.0371 -1.1073 -2.8963 -0.58394 0.76849 2.0756 0.0002127 -0.0022993 -0.0019065 -0 0 -0 3.305 0.49419 -5.5288 -2.8841 -1.1109 3.4953 -1.0644 -0.39942 3.0932 0.85834 0.53273 -1.2865 -0.0014106 0.0026324 0.0019837 -0 0 -0 
0 0.96048 0 -0 0 -0 3.3307 0.39088 -5.2709 -1.0414 -1.047 -1.1449 -1.0414 -1.047 -1.1449 -0.87339 -0.88086 -0.96043 -0 0 -0 -0.11401 2.0887 5.5477 -0.16435 -0.45568 -0.18613 2.9018 0.016981 -2.7288 -0 0 -0 1.1908 -0.72528 11.339 -1.9201 4.1903 2.905 -1.4206 -1.7125 -2.0163 -0.25154 2.5382 4.8395 -0.25154 2.5382 4.8395 3.3307 0.39088 -5.2709 -3.6326 -0.47026 5.9072 0.97497 -1.1289 -2.9967 -0.55535 0.77856 2.0666 -0.00029493 -0.0024172 -0.0032123 -0 0 -0 3.3307 0.39088 -5.2709 -2.9077 -1.0687 3.2482 -1.1284 -0.33767 2.3246 0.90184 0.55499 -0.52021 -0.0013894 0.0038266 0.0027648 -0 0 -0 
0 0.96049 0 -0 0 -0 3.3619 0.30315 -5.0396 -1.0543 -0.9525 -1.233 -1.0543 -0.9525 -1.233 -0.88423 -0.80163 -1.0346 -0 0 -0 -0.036598 1.7481 5.6772 -0.25661 -0.16065 -0.030391 2.4619 -0.56665 -1.8297 -0 0 -0 1.203 -0.8349 11.501 -2.1104 4.1529 3.0212 -1.4458 -1.4183 -2.5441 -0.24026 2.5246 4.9337 -0.24026 2.5246 4.9337 3.3619 0.30315 -5.0396 -3.6134 -0.35648 5.8356 0.88262 -1.1528 -3.1444 -0.52787 0.79056 2.057 -0.00091225 -0.0021546 -0.0037331 -0 0 -0 3.3619 0.30315 -5.0396 -2.9055 -1.07 2.9588 -1.2322 -0.24467 1.5847 0.95677 0.57515 0.28722 -0.00029313 0.0039379 0.0029717 -0 0 -0 
0 0.9605 0 -0 0 -0 3.4145 0.23361 -4.7996 -1.0695 -0.84177 -1.3112 -1.0695 -0.84177 -1.3112 -0.89707 -0.70874 -1.1003 -0 0 -0 0.26246 1.1598 5.643 -0.6044 0.25066 0.46123 1.4246 -1.1095 0.29803 -0 0 -0 1.2101 -1.0399 11.608 -2.2813 4.1608 2.9259 -1.465 -0.93932 -3.1237 -0.2372 2.4961 5.0541 -0.2372 2.4961 5.0541 3.4145 0.23361 -4.7996 -3.6046 -0.22333 5.7985 0.76926 -1.204 -3.337 -0.49301 0.79254 2.0477 -0.0011552 -0.0033246 -0.0035062 -0 0 -0 3.4145 0.23361 -4.7996 -2.8882 -1.115 2.6227 -1.3936 -0.11463 0.87066 1.0355 0.58459 1.1078 -0.00044539 0.0040947 0.0029239 -0 0 -0 
-5.9824e-06 0.96051 3.7858e-07 -0 0 -0 3.507 0.17899 -4.4752 -1.119 -0.79056 -1.3617 -1.119 -0.79056 -1.3617 -0.9387 -0.66587 -1.1428 -0 0 -0 0.76838 0.65353 5.2019 -1.2103 0.51718 1.7603 -0.45264 -1.5653 4.0446 -0 0 -0 1.2997 -1.1269 11.571 -2.4401 4.2639 2.4755 -1.5084 -0.28939 -3.5234 -0.22186 2.5542 5.1601 -0.22186 2.5542 5.1601 3.507 0.17899 -4.4752 -3.6487 -0.0606 5.7188 0.64639 -1.2507 -3.5904 -0.43641 0.74677 2.0559 -0.0020358 -0.004829 -0.0031078 -0 0 -0 3.507 0.17899 -4.4752 -2.8805 -1.1962 2.2335 -1.6289 0.068099 0.12702 1.1572 0.56761 1.9283 -0.0014898 0.0046974 0.0028154 -0 0 -0 
-2.5815e-05 0.96052 3.0881e-06 -0 0 -0 3.6428 0.14957 -4.026 -1.2258 -0.79933 -1.3664 -1.2258 -0.79933 -1.3664 -1.0284 -0.67341 -1.1466 -0 0 -0 1.2588 0.41599 4.3778 -1.958 0.25459 4.1472 -3.2486 -2.0859 9.4219 -0 0 -0 1.5333 -1.1002 11.352 -2.6426 4.5423 1.8386 -1.5898 0.45 -3.6943 -0.17792 2.6887 5.2245 -0.17792 2.6887 5.2245 3.6428 0.14957 -4.026 -3.7428 0.025499 5.5411 0.53489 -1.1574 -3.9559 -0.37231 0.61586 2.1468 -0.0031047 -0.0047758 -0.0028068 -0 0 -0 3.6428 0.14957 -4.026 -2.8872 -1.3028 1.8361 -1.9395 0.30549 -0.61651 1.3247 0.50556 2.634 -0.0012948 0.0054592 0.0026472 -0 0 -0 
-6.9497e-05 0.96055 8.8655e-06 -0 0 -0 3.804 0.14551 -3.4274 -1.3949 -0.80349 -1.3378 -1.3949 -0.80349 -1.3378 -1.1704 -0.67713 -1.1225 -0 0 -0 1.6469 0.32212 3.4577 -2.93 -0.69622 7.5073 -6.759 -2.9871 16.034 -0 0 -0 1.9175 -1.0905 11.045 -2.9963 5.0678 1.4121 -1.6304 1.1286 -3.8418 -0.09059 2.8101 5.26 -0.09059 2.8101 5.26 3.804 0.14551 -3.4274 -3.8441 -0.060453 5.2303 0.45154 -0.83792 -4.4519 -0.33294 0.4147 2.3498 -0.0023589 -0.0031865 -0.0026365 -0 0 -0 3.804 0.14551 -3.4274 -2.8783 -1.3948 1.4918 -2.3082 0.56552 -1.2791 1.5119 0.39466 3.0582 -0.0003062 0.0062201 0.0020444 -0 0 -0 
-0.00014896 0.96059 1.6366e-05 -0 0 -0 3.9573 0.1518 -2.6734 -1.5753 -0.76169 -1.3198 -1.5753 -0.76169 -1.3198 -1.322 -0.64226 -1.1072 -0 0 -0 1.9339 0.23377 2.762 -4.27 -2.4181 11.408 -10.751 -4.5195 23.381 -0 0 -0 2.3039 -1.1262 10.85 -3.5274 5.8227 1.3587 -1.5793 1.6464 -4.0673 -0.0021859 2.8707 5.3165 -0.002186 2.8707 5.3165 3.9573 0.1518 -2.6734 -3.9142 -0.24446 4.7933 0.36494 -0.41154 -4.9967 -0.3018 0.21088 2.5727 -0.00093845 -0.001747 -0.0027107 -0 0 -0 3.9573 0.1518 -2.6734 -2.8239 -1.4403 1.2824 -2.6993 0.8123 -1.881 1.6884 0.25844 3.1326 -0.00070447 0.00632 0.0017886 -0 0 -0 
-0.00027777 0.96065 2.4111e-05 -0 0 -0 4.0848 0.15714 -1.7821 -1.7448 -0.6593 -1.3025 -1.7448 -0.6593 -1.3025 -1.4646 -0.55648 -1.0928 -0 0 -0 2.2673 0.052077 2.4974 -6.011 -5.0255 15.187 -15.09 -6.7 30.98 -0 0 -0 2.6008 -1.1832 10.769 -4.1619 6.7059 1.5084 -1.4476 2.0143 -4.2752 0.087004 2.8619 5.3724 0.087004 2.8619 5.3724 4.0848 0.15714 -1.7821 -3.9569 -0.36024 4.3237 0.22113 -0.10564 -5.5476 -0.2246 0.080379 2.6988 -0.00050185 -0.0016276 -0.0030561 -0 0 -0 4.0848 0.15714 -1.7821 -2.76 -1.4426 1.2465 -3.0536 1.0326 -2.5037 1.8486 0.12652 2.9165 -0.0018987 0.0058848 0.0021795 -0 0 -0 
-0.00047138 0.96075 3.0868e-05 -0 0 -0 4.1976 0.16009 -0.79041 -1.9361 -0.49979 -1.2347 -1.9361 -0.49979 -1.2347 -1.6256 -0.42264 -1.036 -0 0 -0 2.8822 -0.26275 2.7966 -8.2293 -8.6069 18.349 -19.464 -9.4207 38.338 -0 0 -0 2.853 -1.2404 10.603 -4.8309 7.6108 1.7196 -1.2168 2.2791 -4.446 0.2393 2.7989 5.3656 0.2393 2.7989 5.3656 4.1976 0.16009 -0.79041 -4.0014 -0.34905 3.9226 0.014889 -0.026422 -6.1667 -0.088287 0.069522 2.7261 -0.00082432 -0.00179 -0.003264 -0 0 -0 4.1976 0.16009 -0.79041 -2.7483 -1.3801 1.3347 -3.3453 1.2127 -3.1719 2.0169 -0.010046 2.5193 -0.0022048 0.0053827 0.0027505 -0 0 -0 
-0.0007421 0.96088 3.3181e-05 -0 0 -0 4.314 0.16027 0.27901 -2.1788 -0.31422 -1.1059 -2.1788 -0.31422 -1.1059 -1.8298 -0.26678 -0.9282 -0 0 -0 3.8002 -0.60392 3.7502 -10.975 -13.235 20.846 -23.401 -12.409 44.909 -0 0 -0 3.1444 -1.2441 10.199 -5.4865 8.4579 1.8999 -0.89985 2.5029 -4.5725 0.49557 2.7311 5.2956 0.49557 2.7311 5.2956 4.314 0.16027 0.27901 -4.0779 -0.28905 3.5404 -0.20392 -0.087206 -6.8797 0.07418 0.16639 2.7511 -0.0021529 -0.0011961 -0.0035659 -0 0 -0 4.314 0.16027 0.27901 -2.8129 -1.2028 1.4236 -3.5727 1.3157 -3.8963 2.1973 -0.16674 2.0943 -0.0017119 0.0048289 0.0032627 -0 0 -0 
-0.0010938 0.96106 2.5782e-05 -0 0 -0 4.4416 0.16938 1.4521 -2.4711 -0.14581 -0.9405 -2.4711 -0.14581 -0.9405 -2.0756 -0.12521 -0.78961 -0 0 -0 4.7595 -0.8717 5.372 -14.059 -18.812 22.559 -26.595 -15.388 50.421 -0 0 -0 3.5341 -1.1552 9.4863 -6.0973 9.2325 1.977 -0.57415 2.737 -4.6243 0.84162 2.7172 5.1921 0.84162 2.7172 5.1921 4.4416 0.16938 1.4521 -4.2007 -0.24779 3.0712 -0.38467 -0.18666 -7.6812 0.22329 0.32574 2.8468 -0.004118 -0.00084245 -0.004188 -0 0 -0 4.4416 0.16938 1.4521 -2.9652 -0.94219 1.4026 -3.6628 1.3095 -4.7862 2.318 -0.29288 1.8323 -0.0011271 0.0044457 0.0034777 -0 0 -0 
-0.0015216 0.96128 2.0034e-06 -0 0 -0 4.5914 0.22287 2.7875 -2.7834 -0.030464 -0.78853 -2.7834 -0.030464 -0.78853 -2.338 -0.028164 -0.66228 -0 0 -0 5.4937 -1.1134 7.6691 -17.249 -24.937 22.958 -28.934 -18.228 55.048 -0 0 -0 3.9918 -0.96808 8.5321 -6.6672 9.9669 1.9561 -0.29263 2.9829 -4.6083 1.2146 2.7949 5.105 1.2146 2.7949 5.105 4.5914 0.22287 2.7875 -4.3717 -0.28909 2.4939 -0.48854 -0.2594 -8.6048 0.31108 0.51166 3.007 -0.0049644 -0.001797 -0.0045091 -0 0 -0 4.5914 0.22287 2.7875 -3.2139 -0.71874 1.2364 -3.5968 1.3044 -5.7444 2.3603 -0.41518 1.6174 -0.00087446 0.0043811 0.0033204 -0 0 -0 
-0.0020046 0.96155 -4.5524e-05 -0 0 -0 4.7979 0.36092 4.3228 -3.0668 0.037874 -0.72557 -3.0668 0.037874 -0.72557 -2.5761 0.029205 -0.60963 -0 0 -0 5.9206 -1.5004 10.582 -20.52 -31.134 21.781 -30.531 -20.831 58.998 -0 0 -0 4.3536 -0.73646 7.6281 -7.183 10.658 1.7934 -0.066524 3.215 -4.5004 1.5161 2.9383 5.1239 1.5161 2.9383 5.1239 4.7979 0.36092 4.3228 -4.6395 -0.52059 1.8368 -0.44864 -0.22741 -9.619 0.28 0.7099 3.1329 -0.0041095 -0.002719 -0.0041606 -0 0 -0 4.7979 0.36092 4.3228 -3.5434 -0.60205 0.91699 -3.4241 1.3748 -6.6272 2.3228 -0.57746 1.2786 -0.0010797 0.0045377 0.0031121 -0 0 -0 
-0.0025012 0.96185 -0.00012225 -0 0 -0 5.0999 0.58036 6.0375 -3.2868 0.093463 -0.77089 -3.2868 0.093463 -0.77089 -2.761 0.07554 -0.64793 -0 0 -0 6.1608 -2.227 13.713 -23.983 -37.105 19.638 -31.742 -22.896 61.931 -0 0 -0 4.4476 -0.49805 7.0243 -7.5985 11.266 1.3995 0.12356 3.3703 -4.2677 1.6747 3.0948 5.2821 1.6747 3.0948 5.2821 5.0999 0.58036 6.0375 -5.0783 -1.0025 1.1361 -0.2094 -0.025456 -10.507 0.10359 0.91736 2.9912 -0.0027222 -0.0022598 -0.0038052 -0 0 -0 5.0999 0.58036 6.0375 -3.9031 -0.52496 0.41971 -3.2678 1.4632 -7.3081 2.2317 -0.77947 0.73139 -0.0018707 0.0047039 0.002935 -0 0 -0 
-0.0029496 0.96217 -0.00022743 -0 0 -0 5.4897 0.81069 7.8849 -3.4693 0.1361 -0.84278 -3.4693 0.1361 -0.84278 -2.9144 0.1109 -0.70851 -0 0 -0 6.5613 -3.309 16.26 -27.625 -42.772 17.707 -32.9 -24.039 63.066 -0 0 -0 4.3429 -0.13674 6.6422 -7.9255 11.78 0.80421 0.36208 3.353 -3.9431 1.736 3.2844 5.4877 1.736 3.2844 5.4877 5.4897 0.81069 7.8849 -5.6741 -1.6769 0.4624 0.1773 0.36297 -10.873 -0.16811 1.144 2.162 -0.0018951 -0.0012175 -0.0036378 -0 0 -0 5.4897 0.81069 7.8849 -4.2296 -0.34881 -0.25479 -3.2422 1.4745 -7.8002 2.1443 -0.98229 0.034705 -0.0029328 0.0045827 0.0026353 -0 0 -0 
-0.0032567 0.96248 -0.00035011 -0 0 -0 5.8992 0.96594 9.8431 -3.6345 0.18376 -0.8832 -3.6345 0.18376 -0.8832 -3.0532 0.1506 -0.7427 -0 0 -0 7.3946 -4.7079 17.73 -31.169 -48.182 16.738 -34.144 -24.174 62.283 -0 0 -0 4.1962 0.39375 6.3661 -8.2255 12.235 0.10956 0.76504 3.1185 -3.6184 1.7649 3.5054 5.676 1.7649 3.5054 5.676 5.8992 0.96594 9.8431 -6.2865 -2.4172 -0.067201 0.56278 0.90338 -10.241 -0.42822 1.407 0.0792 -0.001605 -0.0010285 -0.0032147 -0 0 -0 5.8992 0.96594 9.8431 -4.4959 -0.031246 -1.098 -3.3307 1.417 -8.2362 2.0997 -1.1469 -0.65758 -0.0035693 0.0041651 0.0023935 -0 0 -0 
-0.0033338 0.96278 -0.00046949 -0 0 -0 6.2559 1.0299 11.888 -3.7658 0.26113 -0.90794 -3.7658 0.26113 -0.90794 -3.1635 0.21535 -0.76385 -0 0 -0 8.6162 -6.4191 18.555 -34.468 -53.226 16.139 -35.427 -23.543 60.549 -0 0 -0 4.067 1.0279 6.2194 -8.5338 12.678 -0.64115 1.3898 2.7477 -3.3753 1.7827 3.7134 5.877 1.7827 3.7134 5.877 6.2559 1.0299 11.888 -6.7545 -3.1856 -0.32283 0.81545 1.5855 -8.2728 -0.58468 1.7036 -3.6918 -0.0021253 -0.0015963 -0.0025821 -0 0 -0 6.2559 1.0299 11.888 -4.7325 0.36427 -2.045 -3.4221 1.3612 -8.7178 2.1037 -1.2721 -1.2785 -0.0035812 0.0041651 0.0024516 -0 0 -0 
-0.0030911 0.96303 -0.00055193 -0 0 -0 6.5515 1.0839 13.954 -3.8607 0.34771 -0.92077 -3.8607 0.34771 -0.92077 -3.2434 0.28792 -0.77505 -0 0 -0 9.9784 -8.3583 19.433 -37.87 -57.493 14.462 -36.514 -22.613 59.015 -0 0 -0 3.9564 1.7083 6.1693 -8.8505 13.139 -1.4581 2.2065 2.4467 -3.1766 1.8073 3.8868 6.1076 1.8073 3.8868 6.1076 6.5515 1.0839 13.954 -7.0151 -4.0737 -0.20578 0.86907 2.4537 -5.0457 -0.59185 1.9878 -9.1106 -0.003205 -0.0019296 -0.0023059 -0 0 -0 6.5515 1.0839 13.954 -5.022 0.7539 -2.9219 -3.4188 1.3488 -9.2957 2.0785 -1.3332 -1.7489 0.0668 -0.058068 -0.13932 -0 0 -0 
